<svg width="1600" height="900" xmlns="http://www.w3.org/2000/svg"><g><path d="M-48.45019650645554,-89.49700470082462L-125.19077748991549,105.3171791229397L16.11802004277706,50.08917225524783Z" fill="#faf9fc" stroke="#faf9fc"></path><path d="M-48.45019650645554,-89.49700470082462L16.11802004277706,50.08917225524783L131.8599485512823,-24.2622097581625Z" fill="#f6f5fa" stroke="#f6f5fa"></path><path d="M-48.45019650645554,-89.49700470082462L131.8599485512823,-24.2622097581625L249.19813385233283,-85.25894120335579Z" fill="#f1f2f8" stroke="#f1f2f8"></path><path d="M-48.45019650645554,-89.49700470082462L249.19813385233283,-85.25894120335579L368.47138459794223,-95.43405387550592Z" fill="#eceef6" stroke="#eceef6"></path><path d="M-48.45019650645554,-89.49700470082462L368.47138459794223,-95.43405387550592L579.0054010972381,-108.28467476181686Z" fill="#e5e9f3" stroke="#e5e9f3"></path><path d="M-48.45019650645554,-89.49700470082462L579.0054010972381,-108.28467476181686L815.4892935510725,-116.38080996461213Z" fill="#dae2ef" stroke="#dae2ef"></path><path d="M131.8599485512823,-24.2622097581625L16.11802004277706,50.08917225524783L177.4904489144683,127.68449588678777Z" fill="#eef0f8" stroke="#eef0f8"></path><path d="M131.8599485512823,-24.2622097581625L177.4904489144683,127.68449588678777L249.19813385233283,-85.25894120335579Z" fill="#eceef6" stroke="#eceef6"></path><path d="M249.19813385233283,-85.25894120335579L177.4904489144683,127.68449588678777L416.8685279879719,23.304720679298043Z" fill="#e4e9f3" stroke="#e4e9f3"></path><path d="M249.19813385233283,-85.25894120335579L416.8685279879719,23.304720679298043L368.47138459794223,-95.43405387550592Z" fill="#e2e7f2" stroke="#e2e7f2"></path><path d="M368.47138459794223,-95.43405387550592L416.8685279879719,23.304720679298043L579.0054010972381,-108.28467476181686Z" fill="#d9e2ef" stroke="#d9e2ef"></path><path d="M579.0054010972381,-108.28467476181686L416.8685279879719,23.304720679298043L549.3448621407151,72.89025524631143Z" fill="#d4e0ee" stroke="#d4e0ee"></path><path d="M579.0054010972381,-108.28467476181686L549.3448621407151,72.89025524631143L640.4497867170721,42.410352509468794Z" fill="#cdddec" stroke="#cdddec"></path><path d="M579.0054010972381,-108.28467476181686L640.4497867170721,42.410352509468794L651.5883772261441,-72.56405314430594Z" fill="#cadbeb" stroke="#cadbeb"></path><path d="M579.0054010972381,-108.28467476181686L651.5883772261441,-72.56405314430594L815.4892935510725,-116.38080996461213Z" fill="#c5d9ea" stroke="#c5d9ea"></path><path d="M651.5883772261441,-72.56405314430594L640.4497867170721,42.410352509468794L815.4892935510725,-116.38080996461213Z" fill="#c3d8e9" stroke="#c3d8e9"></path><path d="M815.4892935510725,-116.38080996461213L640.4497867170721,42.410352509468794L857.8059637639672,131.61945649422705Z" fill="#bbd5e8" stroke="#bbd5e8"></path><path d="M815.4892935510725,-116.38080996461213L857.8059637639672,131.61945649422705L938.790702726692,-72.26898517459631Z" fill="#b0cfe5" stroke="#b0cfe5"></path><path d="M815.4892935510725,-116.38080996461213L938.790702726692,-72.26898517459631L1098.796819075942,-87.28715672157705Z" fill="#a5c9e1" stroke="#a5c9e1"></path><path d="M815.4892935510725,-116.38080996461213L1098.796819075942,-87.28715672157705L1778.1445495504886,-94.86213225871325Z" fill="#80b6d7" stroke="#80b6d7"></path><path d="M938.790702726692,-72.26898517459631L857.8059637639672,131.61945649422705L942.3560366034508,122.92052996344864Z" fill="#a6cae3" stroke="#a6cae3"></path><path d="M938.790702726692,-72.26898517459631L942.3560366034508,122.92052996344864L1098.796819075942,-87.28715672157705Z" fill="#9fc6e0" stroke="#9fc6e0"></path><path d="M1098.796819075942,-87.28715672157705L942.3560366034508,122.92052996344864L1111.053464775905,128.9369384944439Z" fill="#93c0de" stroke="#93c0de"></path><path d="M1098.796819075942,-87.28715672157705L1111.053464775905,128.9369384944439L1261.999133946374,-53.078433126211166Z" fill="#88bbd9" stroke="#88bbd9"></path><path d="M1098.796819075942,-87.28715672157705L1261.999133946374,-53.078433126211166L1447.603964600712,-75.96189594827592Z" fill="#80b3d5" stroke="#80b3d5"></path><path d="M1098.796819075942,-87.28715672157705L1447.603964600712,-75.96189594827592L1778.1445495504886,-94.86213225871325Z" fill="#80a7ce" stroke="#80a7ce"></path><path d="M1261.999133946374,-53.078433126211166L1111.053464775905,128.9369384944439L1292.0892122201622,104.87153185531497Z" fill="#7cb4d7" stroke="#7cb4d7"></path><path d="M1261.999133946374,-53.078433126211166L1292.0892122201622,104.87153185531497L1380.914255278185,71.03112598881125Z" fill="#7daed3" stroke="#7daed3"></path><path d="M1261.999133946374,-53.078433126211166L1380.914255278185,71.03112598881125L1447.603964600712,-75.96189594827592Z" fill="#80acd1" stroke="#80acd1"></path><path d="M1447.603964600712,-75.96189594827592L1380.914255278185,71.03112598881125L1518.6697364598513,-26.97830345481634Z" fill="#80a6ce" stroke="#80a6ce"></path><path d="M1447.603964600712,-75.96189594827592L1518.6697364598513,-26.97830345481634L1778.1445495504886,-94.86213225871325Z" fill="#809dc9" stroke="#809dc9"></path><path d="M1518.6697364598513,-26.97830345481634L1380.914255278185,71.03112598881125L1520.62350936234,62.78921543620527Z" fill="#7da3cd" stroke="#7da3cd"></path><path d="M1518.6697364598513,-26.97830345481634L1520.62350936234,62.78921543620527L1669.4159314222634,57.642895029857755Z" fill="#7e9cc9" stroke="#7e9cc9"></path><path d="M1518.6697364598513,-26.97830345481634L1669.4159314222634,57.642895029857755L1778.1445495504886,-94.86213225871325Z" fill="#8097c6" stroke="#8097c6"></path><path d="M1778.1445495504886,-94.86213225871325L1669.4159314222634,57.642895029857755L1698.446884425357,180.7780201267451Z" fill="#7d92c4" stroke="#7d92c4"></path><path d="M1778.1445495504886,-94.86213225871325L1698.446884425357,180.7780201267451L1742.229922162369,324.6459026634693Z" fill="#778dc3" stroke="#778dc3"></path><path d="M1778.1445495504886,-94.86213225871325L1742.229922162369,324.6459026634693L1773.6778715718538,714.058244805783Z" fill="#5f80c0" stroke="#5f80c0"></path><path d="M-125.19077748991549,105.3171791229397L-123.94908090122044,717.9440418630838L-103.7832681555301,223.57403296977282Z" fill="#d8eafc" stroke="#d8eafc"></path><path d="M-125.19077748991549,105.3171791229397L-103.7832681555301,223.57403296977282L59.24995869398117,188.1990273669362Z" fill="#f0f4fc" stroke="#f0f4fc"></path><path d="M-125.19077748991549,105.3171791229397L59.24995869398117,188.1990273669362L16.11802004277706,50.08917225524783Z" fill="#f2f4fb" stroke="#f2f4fb"></path><path d="M16.11802004277706,50.08917225524783L59.24995869398117,188.1990273669362L177.4904489144683,127.68449588678777Z" fill="#ebeff9" stroke="#ebeff9"></path><path d="M177.4904489144683,127.68449588678777L59.24995869398117,188.1990273669362L227.66599408350885,194.1128670796752Z" fill="#e3eaf7" stroke="#e3eaf7"></path><path d="M177.4904489144683,127.68449588678777L227.66599408350885,194.1128670796752L416.8685279879719,23.304720679298043Z" fill="#dfe6f4" stroke="#dfe6f4"></path><path d="M416.8685279879719,23.304720679298043L227.66599408350885,194.1128670796752L334.92381094023585,278.9994976390153Z" fill="#d8e2f2" stroke="#d8e2f2"></path><path d="M416.8685279879719,23.304720679298043L334.92381094023585,278.9994976390153L472.403251491487,230.96708804368973Z" fill="#d2def0" stroke="#d2def0"></path><path d="M416.8685279879719,23.304720679298043L472.403251491487,230.96708804368973L549.3448621407151,72.89025524631143Z" fill="#cfdeee" stroke="#cfdeee"></path><path d="M549.3448621407151,72.89025524631143L472.403251491487,230.96708804368973L726.0384308919311,202.26104155182838Z" fill="#c3d7ec" stroke="#c3d7ec"></path><path d="M549.3448621407151,72.89025524631143L726.0384308919311,202.26104155182838L640.4497867170721,42.410352509468794Z" fill="#c1d7eb" stroke="#c1d7eb"></path><path d="M640.4497867170721,42.410352509468794L726.0384308919311,202.26104155182838L857.8059637639672,131.61945649422705Z" fill="#b7d3e9" stroke="#b7d3e9"></path><path d="M857.8059637639672,131.61945649422705L726.0384308919311,202.26104155182838L770.3496303968132,228.72639904730022Z" fill="#afcee8" stroke="#afcee8"></path><path d="M857.8059637639672,131.61945649422705L770.3496303968132,228.72639904730022L1025.2753315586597,202.74923010729253Z" fill="#a2c8e4" stroke="#a2c8e4"></path><path d="M857.8059637639672,131.61945649422705L1025.2753315586597,202.74923010729253L942.3560366034508,122.92052996344864Z" fill="#9cc5e2" stroke="#9cc5e2"></path><path d="M942.3560366034508,122.92052996344864L1025.2753315586597,202.74923010729253L1111.053464775905,128.9369384944439Z" fill="#90bfde" stroke="#90bfde"></path><path d="M1111.053464775905,128.9369384944439L1025.2753315586597,202.74923010729253L1123.653594693169,209.8033634852618Z" fill="#86badc" stroke="#86badc"></path><path d="M1111.053464775905,128.9369384944439L1123.653594693169,209.8033634852618L1262.7969792019576,194.17489397339523Z" fill="#7bb4d9" stroke="#7bb4d9"></path><path d="M1111.053464775905,128.9369384944439L1262.7969792019576,194.17489397339523L1292.0892122201622,104.87153185531497Z" fill="#76b1d7" stroke="#76b1d7"></path><path d="M1292.0892122201622,104.87153185531497L1262.7969792019576,194.17489397339523L1380.914255278185,71.03112598881125Z" fill="#78acd3" stroke="#78acd3"></path><path d="M1380.914255278185,71.03112598881125L1262.7969792019576,194.17489397339523L1438.3813071157783,277.0416930131614Z" fill="#74a6d2" stroke="#74a6d2"></path><path d="M1380.914255278185,71.03112598881125L1438.3813071157783,277.0416930131614L1529.783973544836,223.09492617845535Z" fill="#739fce" stroke="#739fce"></path><path d="M1380.914255278185,71.03112598881125L1529.783973544836,223.09492617845535L1520.62350936234,62.78921543620527Z" fill="#78a0cd" stroke="#78a0cd"></path><path d="M1520.62350936234,62.78921543620527L1529.783973544836,223.09492617845535L1669.4159314222634,57.642895029857755Z" fill="#7899c9" stroke="#7899c9"></path><path d="M1669.4159314222634,57.642895029857755L1529.783973544836,223.09492617845535L1698.446884425357,180.7780201267451Z" fill="#7594c7" stroke="#7594c7"></path><path d="M-103.7832681555301,223.57403296977282L-123.94908090122044,717.9440418630838L-84.11662487313151,347.72304841317236Z" fill="#c9e3fa" stroke="#c9e3fa"></path><path d="M-103.7832681555301,223.57403296977282L-84.11662487313151,347.72304841317236L59.24995869398117,188.1990273669362Z" fill="#e7effb" stroke="#e7effb"></path><path d="M59.24995869398117,188.1990273669362L-84.11662487313151,347.72304841317236L132.51569132320583,400.44790456071496Z" fill="#d6e6f8" stroke="#d6e6f8"></path><path d="M59.24995869398117,188.1990273669362L132.51569132320583,400.44790456071496L227.66599408350885,194.1128670796752Z" fill="#d9e6f7" stroke="#d9e6f7"></path><path d="M227.66599408350885,194.1128670796752L132.51569132320583,400.44790456071496L235.57552618905902,423.7539076153189Z" fill="#c6dcf4" stroke="#c6dcf4"></path><path d="M227.66599408350885,194.1128670796752L235.57552618905902,423.7539076153189L334.92381094023585,278.9994976390153Z" fill="#c9dcf2" stroke="#c9dcf2"></path><path d="M334.92381094023585,278.9994976390153L235.57552618905902,423.7539076153189L390.3444781154394,350.5889807548374Z" fill="#bcd5f0" stroke="#bcd5f0"></path><path d="M334.92381094023585,278.9994976390153L390.3444781154394,350.5889807548374L472.403251491487,230.96708804368973Z" fill="#c3d7ef" stroke="#c3d7ef"></path><path d="M472.403251491487,230.96708804368973L390.3444781154394,350.5889807548374L512.4561745394021,358.2586591131985Z" fill="#b9d3ed" stroke="#b9d3ed"></path><path d="M472.403251491487,230.96708804368973L512.4561745394021,358.2586591131985L620.3945583477616,376.87109174206853Z" fill="#b0cfec" stroke="#b0cfec"></path><path d="M472.403251491487,230.96708804368973L620.3945583477616,376.87109174206853L726.0384308919311,202.26104155182838Z" fill="#b4d0eb" stroke="#b4d0eb"></path><path d="M726.0384308919311,202.26104155182838L620.3945583477616,376.87109174206853L770.3496303968132,228.72639904730022Z" fill="#abcde8" stroke="#abcde8"></path><path d="M770.3496303968132,228.72639904730022L620.3945583477616,376.87109174206853L788.0023377947509,402.4789522122592Z" fill="#9cc6e7" stroke="#9cc6e7"></path><path d="M770.3496303968132,228.72639904730022L788.0023377947509,402.4789522122592L1018.5594944190234,392.26649296469986Z" fill="#8cbfe3" stroke="#8cbfe3"></path><path d="M770.3496303968132,228.72639904730022L1018.5594944190234,392.26649296469986L1025.2753315586597,202.74923010729253Z" fill="#8ebee1" stroke="#8ebee1"></path><path d="M1025.2753315586597,202.74923010729253L1018.5594944190234,392.26649296469986L1123.653594693169,209.8033634852618Z" fill="#7fb7dc" stroke="#7fb7dc"></path><path d="M1123.653594693169,209.8033634852618L1018.5594944190234,392.26649296469986L1157.487258380279,383.6775741353631Z" fill="#6daeda" stroke="#6daeda"></path><path d="M1123.653594693169,209.8033634852618L1157.487258380279,383.6775741353631L1222.3366197478026,330.352018000558Z" fill="#68acd7" stroke="#68acd7"></path><path d="M1123.653594693169,209.8033634852618L1222.3366197478026,330.352018000558L1262.7969792019576,194.17489397339523Z" fill="#6fafd7" stroke="#6fafd7"></path><path d="M1262.7969792019576,194.17489397339523L1222.3366197478026,330.352018000558L1438.3813071157783,277.0416930131614Z" fill="#69a5d3" stroke="#69a5d3"></path><path d="M1438.3813071157783,277.0416930131614L1222.3366197478026,330.352018000558L1446.1486698221415,395.6808931287378Z" fill="#5c9bcf" stroke="#5c9bcf"></path><path d="M1438.3813071157783,277.0416930131614L1446.1486698221415,395.6808931287378L1602.0153964776546,369.5501025393605Z" fill="#5991ca" stroke="#5991ca"></path><path d="M1438.3813071157783,277.0416930131614L1602.0153964776546,369.5501025393605L1529.783973544836,223.09492617845535Z" fill="#6494ca" stroke="#6494ca"></path><path d="M1529.783973544836,223.09492617845535L1602.0153964776546,369.5501025393605L1698.446884425357,180.7780201267451Z" fill="#6a90c7" stroke="#6a90c7"></path><path d="M1698.446884425357,180.7780201267451L1602.0153964776546,369.5501025393605L1742.229922162369,324.6459026634693Z" fill="#6488c4" stroke="#6488c4"></path><path d="M-84.11662487313151,347.72304841317236L-123.94908090122044,717.9440418630838L-45.638830717653036,520.5455962847918Z" fill="#b1d4f2" stroke="#b1d4f2"></path><path d="M-84.11662487313151,347.72304841317236L-45.638830717653036,520.5455962847918L54.50463820248842,521.9840574357659Z" fill="#bcdbf6" stroke="#bcdbf6"></path><path d="M-84.11662487313151,347.72304841317236L54.50463820248842,521.9840574357659L132.51569132320583,400.44790456071496Z" fill="#c1ddf6" stroke="#c1ddf6"></path><path d="M132.51569132320583,400.44790456071496L54.50463820248842,521.9840574357659L175.80949991941452,468.5531016625464Z" fill="#b3d4f3" stroke="#b3d4f3"></path><path d="M132.51569132320583,400.44790456071496L175.80949991941452,468.5531016625464L235.57552618905902,423.7539076153189Z" fill="#b5d5f2" stroke="#b5d5f2"></path><path d="M235.57552618905902,423.7539076153189L175.80949991941452,468.5531016625464L259.42913881503046,615.313151339069Z" fill="#a3c9ec" stroke="#a3c9ec"></path><path d="M235.57552618905902,423.7539076153189L259.42913881503046,615.313151339069L428.20711358450353,533.6110793519765Z" fill="#99c3e9" stroke="#99c3e9"></path><path d="M235.57552618905902,423.7539076153189L428.20711358450353,533.6110793519765L390.3444781154394,350.5889807548374Z" fill="#a9ccee" stroke="#a9ccee"></path><path d="M390.3444781154394,350.5889807548374L428.20711358450353,533.6110793519765L512.4561745394021,358.2586591131985Z" fill="#a7cbec" stroke="#a7cbec"></path><path d="M512.4561745394021,358.2586591131985L428.20711358450353,533.6110793519765L560.1356917060912,552.7797180879861Z" fill="#94c0e7" stroke="#94c0e7"></path><path d="M512.4561745394021,358.2586591131985L560.1356917060912,552.7797180879861L620.3945583477616,376.87109174206853Z" fill="#99c5e9" stroke="#99c5e9"></path><path d="M620.3945583477616,376.87109174206853L560.1356917060912,552.7797180879861L705.9256480727345,556.200793152675Z" fill="#84b9e4" stroke="#84b9e4"></path><path d="M620.3945583477616,376.87109174206853L705.9256480727345,556.200793152675L788.0023377947509,402.4789522122592Z" fill="#89bee5" stroke="#89bee5"></path><path d="M788.0023377947509,402.4789522122592L705.9256480727345,556.200793152675L835.907395882532,511.4121449086815Z" fill="#78b4e0" stroke="#78b4e0"></path><path d="M788.0023377947509,402.4789522122592L835.907395882532,511.4121449086815L976.5540684666485,471.0561006143689Z" fill="#73b2e0" stroke="#73b2e0"></path><path d="M788.0023377947509,402.4789522122592L976.5540684666485,471.0561006143689L1018.5594944190234,392.26649296469986Z" fill="#73b3df" stroke="#73b3df"></path><path d="M1018.5594944190234,392.26649296469986L976.5540684666485,471.0561006143689L1090.6204735580832,503.0902780685574Z" fill="#5ea8da" stroke="#5ea8da"></path><path d="M1018.5594944190234,392.26649296469986L1090.6204735580832,503.0902780685574L1157.487258380279,383.6775741353631Z" fill="#5ca7d9" stroke="#5ca7d9"></path><path d="M1157.487258380279,383.6775741353631L1090.6204735580832,503.0902780685574L1233.3969778753817,516.8103942275047Z" fill="#499dd4" stroke="#499dd4"></path><path d="M1157.487258380279,383.6775741353631L1233.3969778753817,516.8103942275047L1222.3366197478026,330.352018000558Z" fill="#4fa0d4" stroke="#4fa0d4"></path><path d="M1222.3366197478026,330.352018000558L1233.3969778753817,516.8103942275047L1408.6383563373238,471.0522024985403Z" fill="#4797d0" stroke="#4797d0"></path><path d="M1222.3366197478026,330.352018000558L1408.6383563373238,471.0522024985403L1446.1486698221415,395.6808931287378Z" fill="#4f96cf" stroke="#4f96cf"></path><path d="M1446.1486698221415,395.6808931287378L1408.6383563373238,471.0522024985403L1588.707305090502,559.7311069630086Z" fill="#3f85c7" stroke="#3f85c7"></path><path d="M1446.1486698221415,395.6808931287378L1588.707305090502,559.7311069630086L1602.0153964776546,369.5501025393605Z" fill="#4785c6" stroke="#4785c6"></path><path d="M1602.0153964776546,369.5501025393605L1588.707305090502,559.7311069630086L1679.792599780485,532.1033279411495Z" fill="#3d79c0" stroke="#3d79c0"></path><path d="M1602.0153964776546,369.5501025393605L1679.792599780485,532.1033279411495L1742.229922162369,324.6459026634693Z" fill="#4d7ec2" stroke="#4d7ec2"></path><path d="M1742.229922162369,324.6459026634693L1679.792599780485,532.1033279411495L1773.6778715718538,714.058244805783Z" fill="#346cb9" stroke="#346cb9"></path><path d="M-45.638830717653036,520.5455962847918L-123.94908090122044,717.9440418630838L108.77891580574214,639.3352805636823Z" fill="#97c2e9" stroke="#97c2e9"></path><path d="M-45.638830717653036,520.5455962847918L108.77891580574214,639.3352805636823L54.50463820248842,521.9840574357659Z" fill="#a2c9ed" stroke="#a2c9ed"></path><path d="M54.50463820248842,521.9840574357659L108.77891580574214,639.3352805636823L175.80949991941452,468.5531016625464Z" fill="#a1c9ec" stroke="#a1c9ec"></path><path d="M175.80949991941452,468.5531016625464L108.77891580574214,639.3352805636823L259.42913881503046,615.313151339069Z" fill="#95c0e8" stroke="#95c0e8"></path><path d="M428.20711358450353,533.6110793519765L259.42913881503046,615.313151339069L422.7942732721567,658.3105209097266Z" fill="#83b4e1" stroke="#83b4e1"></path><path d="M428.20711358450353,533.6110793519765L422.7942732721567,658.3105209097266L560.1356917060912,552.7797180879861Z" fill="#7fb2e0" stroke="#7fb2e0"></path><path d="M560.1356917060912,552.7797180879861L422.7942732721567,658.3105209097266L497.52646520733833,716.8483902700245Z" fill="#6fa9da" stroke="#6fa9da"></path><path d="M560.1356917060912,552.7797180879861L497.52646520733833,716.8483902700245L712.9081613291055,728.7652450986207Z" fill="#61a1d6" stroke="#61a1d6"></path><path d="M560.1356917060912,552.7797180879861L712.9081613291055,728.7652450986207L705.9256480727345,556.200793152675Z" fill="#67a6d9" stroke="#67a6d9"></path><path d="M705.9256480727345,556.200793152675L712.9081613291055,728.7652450986207L831.4125431142747,639.6561716962606Z" fill="#589ed5" stroke="#589ed5"></path><path d="M705.9256480727345,556.200793152675L831.4125431142747,639.6561716962606L835.907395882532,511.4121449086815Z" fill="#65a8d9" stroke="#65a8d9"></path><path d="M835.907395882532,511.4121449086815L831.4125431142747,639.6561716962606L977.099314564839,625.7301566842943Z" fill="#539ed5" stroke="#539ed5"></path><path d="M835.907395882532,511.4121449086815L977.099314564839,625.7301566842943L976.5540684666485,471.0561006143689Z" fill="#5aa3d7" stroke="#5aa3d7"></path><path d="M976.5540684666485,471.0561006143689L977.099314564839,625.7301566842943L1090.6204735580832,503.0902780685574Z" fill="#4e9dd4" stroke="#4e9dd4"></path><path d="M1090.6204735580832,503.0902780685574L977.099314564839,625.7301566842943L1071.2477007787675,659.6315373200923Z" fill="#3c92ce" stroke="#3c92ce"></path><path d="M1090.6204735580832,503.0902780685574L1071.2477007787675,659.6315373200923L1223.051801836118,626.0618984699249Z" fill="#308ccb" stroke="#308ccb"></path><path d="M1090.6204735580832,503.0902780685574L1223.051801836118,626.0618984699249L1233.3969778753817,516.8103942275047Z" fill="#348fcc" stroke="#348fcc"></path><path d="M1233.3969778753817,516.8103942275047L1223.051801836118,626.0618984699249L1412.233351059258,649.4369865953922Z" fill="#2480c4" stroke="#2480c4"></path><path d="M1233.3969778753817,516.8103942275047L1412.233351059258,649.4369865953922L1408.6383563373238,471.0522024985403Z" fill="#2f83c6" stroke="#2f83c6"></path><path d="M1408.6383563373238,471.0522024985403L1412.233351059258,649.4369865953922L1588.707305090502,559.7311069630086Z" fill="#2c79c0" stroke="#2c79c0"></path><path d="M1588.707305090502,559.7311069630086L1412.233351059258,649.4369865953922L1628.9940644614398,646.0736618936062Z" fill="#1f6bb8" stroke="#1f6bb8"></path><path d="M1588.707305090502,559.7311069630086L1628.9940644614398,646.0736618936062L1679.792599780485,532.1033279411495Z" fill="#286ab8" stroke="#286ab8"></path><path d="M1679.792599780485,532.1033279411495L1628.9940644614398,646.0736618936062L1773.6778715718538,714.058244805783Z" fill="#1c5eb2" stroke="#1c5eb2"></path><path d="M-123.94908090122044,717.9440418630838L-93.70613110251725,883.4238022472709L18.432987900450826,859.9288339354098Z" fill="#7da7da" stroke="#7da7da"></path><path d="M-123.94908090122044,717.9440418630838L18.432987900450826,859.9288339354098L108.77891580574214,639.3352805636823Z" fill="#7cb0df" stroke="#7cb0df"></path><path d="M108.77891580574214,639.3352805636823L18.432987900450826,859.9288339354098L173.7550386786461,798.2892875187099Z" fill="#72a8da" stroke="#72a8da"></path><path d="M108.77891580574214,639.3352805636823L173.7550386786461,798.2892875187099L259.42913881503046,615.313151339069Z" fill="#7db0df" stroke="#7db0df"></path><path d="M259.42913881503046,615.313151339069L173.7550386786461,798.2892875187099L319.55889500677586,773.391714496538Z" fill="#6da6d9" stroke="#6da6d9"></path><path d="M259.42913881503046,615.313151339069L319.55889500677586,773.391714496538L422.7942732721567,658.3105209097266Z" fill="#73a9db" stroke="#73a9db"></path><path d="M422.7942732721567,658.3105209097266L319.55889500677586,773.391714496538L497.52646520733833,716.8483902700245Z" fill="#66a1d6" stroke="#66a1d6"></path><path d="M497.52646520733833,716.8483902700245L319.55889500677586,773.391714496538L534.7796078771353,817.6646033674479Z" fill="#5a97d1" stroke="#5a97d1"></path><path d="M497.52646520733833,716.8483902700245L534.7796078771353,817.6646033674479L664.793815780431,819.9855692312121Z" fill="#5090cd" stroke="#5090cd"></path><path d="M497.52646520733833,716.8483902700245L664.793815780431,819.9855692312121L712.9081613291055,728.7652450986207Z" fill="#4a92ce" stroke="#4a92ce"></path><path d="M712.9081613291055,728.7652450986207L664.793815780431,819.9855692312121L875.0606090761721,812.1674138400704Z" fill="#3f88c9" stroke="#3f88c9"></path><path d="M712.9081613291055,728.7652450986207L875.0606090761721,812.1674138400704L831.4125431142747,639.6561716962606Z" fill="#3f8fcc" stroke="#3f8fcc"></path><path d="M831.4125431142747,639.6561716962606L875.0606090761721,812.1674138400704L972.522216020152,774.8527424968779Z" fill="#2f87c8" stroke="#2f87c8"></path><path d="M831.4125431142747,639.6561716962606L972.522216020152,774.8527424968779L977.099314564839,625.7301566842943Z" fill="#398dcb" stroke="#398dcb"></path><path d="M977.099314564839,625.7301566842943L972.522216020152,774.8527424968779L1071.2477007787675,659.6315373200923Z" fill="#2d87c8" stroke="#2d87c8"></path><path d="M1071.2477007787675,659.6315373200923L972.522216020152,774.8527424968779L1089.719223221764,868.9296805579215Z" fill="#1878c0" stroke="#1878c0"></path><path d="M1071.2477007787675,659.6315373200923L1089.719223221764,868.9296805579215L1223.051801836118,626.0618984699249Z" fill="#1479c1" stroke="#1479c1"></path><path d="M1223.051801836118,626.0618984699249L1089.719223221764,868.9296805579215L1313.4569071233273,837.0028256624937Z" fill="#026bb8" stroke="#026bb8"></path><path d="M1223.051801836118,626.0618984699249L1313.4569071233273,837.0028256624937L1412.233351059258,649.4369865953922Z" fill="#0b6eba" stroke="#0b6eba"></path><path d="M1412.233351059258,649.4369865953922L1313.4569071233273,837.0028256624937L1415.2951769158244,839.6483566146344Z" fill="#005fb2" stroke="#005fb2"></path><path d="M1412.233351059258,649.4369865953922L1415.2951769158244,839.6483566146344L1626.4625545218587,767.1368695423007Z" fill="#005bb0" stroke="#005bb0"></path><path d="M1412.233351059258,649.4369865953922L1626.4625545218587,767.1368695423007L1628.9940644614398,646.0736618936062Z" fill="#0f5fb2" stroke="#0f5fb2"></path><path d="M1628.9940644614398,646.0736618936062L1626.4625545218587,767.1368695423007L1773.6778715718538,714.058244805783Z" fill="#0a54ac" stroke="#0a54ac"></path><path d="M1773.6778715718538,714.058244805783L1626.4625545218587,767.1368695423007L1742.5710424035788,776.8384358659387Z" fill="#004ba7" stroke="#004ba7"></path><path d="M1773.6778715718538,714.058244805783L1742.5710424035788,776.8384358659387L1708.7522982247174,948.5058380663395Z" fill="#003fa1" stroke="#003fa1"></path><path d="M-93.70613110251725,883.4238022472709L-41.82661609724164,1032.508588442579L18.432987900450826,859.9288339354098Z" fill="#7b96d1" stroke="#7b96d1"></path><path d="M18.432987900450826,859.9288339354098L-41.82661609724164,1032.508588442579L103.4669207688421,959.2375827021897Z" fill="#778fcd" stroke="#778fcd"></path><path d="M18.432987900450826,859.9288339354098L103.4669207688421,959.2375827021897L173.7550386786461,798.2892875187099Z" fill="#7297d2" stroke="#7297d2"></path><path d="M173.7550386786461,798.2892875187099L103.4669207688421,959.2375827021897L202.32189643196762,925.866834204644Z" fill="#6e91ce" stroke="#6e91ce"></path><path d="M173.7550386786461,798.2892875187099L202.32189643196762,925.866834204644L319.55889500677586,773.391714496538Z" fill="#6a97d1" stroke="#6a97d1"></path><path d="M319.55889500677586,773.391714496538L202.32189643196762,925.866834204644L390.2962250635028,979.9061236996204Z" fill="#658bca" stroke="#658bca"></path><path d="M319.55889500677586,773.391714496538L390.2962250635028,979.9061236996204L534.7796078771353,817.6646033674479Z" fill="#5d8bca" stroke="#5d8bca"></path><path d="M534.7796078771353,817.6646033674479L390.2962250635028,979.9061236996204L542.2863171715289,1004.7568976785988Z" fill="#577dc2" stroke="#577dc2"></path><path d="M534.7796078771353,817.6646033674479L542.2863171715289,1004.7568976785988L664.793815780431,819.9855692312121Z" fill="#4e81c5" stroke="#4e81c5"></path><path d="M664.793815780431,819.9855692312121L542.2863171715289,1004.7568976785988L716.5204662457108,919.7286954894662Z" fill="#497ac1" stroke="#497ac1"></path><path d="M664.793815780431,819.9855692312121L716.5204662457108,919.7286954894662L875.0606090761721,812.1674138400704Z" fill="#3f7fc3" stroke="#3f7fc3"></path><path d="M875.0606090761721,812.1674138400704L716.5204662457108,919.7286954894662L784.0895965788513,1004.9584254808724Z" fill="#3b74bd" stroke="#3b74bd"></path><path d="M875.0606090761721,812.1674138400704L784.0895965788513,1004.9584254808724L960.768288737163,964.3455104716122Z" fill="#306cb9" stroke="#306cb9"></path><path d="M875.0606090761721,812.1674138400704L960.768288737163,964.3455104716122L972.522216020152,774.8527424968779Z" fill="#2773bd" stroke="#2773bd"></path><path d="M972.522216020152,774.8527424968779L960.768288737163,964.3455104716122L1089.719223221764,868.9296805579215Z" fill="#1d6bb9" stroke="#1d6bb9"></path><path d="M1089.719223221764,868.9296805579215L960.768288737163,964.3455104716122L1080.6420762185007,1014.3604153767228Z" fill="#185cb1" stroke="#185cb1"></path><path d="M1089.719223221764,868.9296805579215L1080.6420762185007,1014.3604153767228L1231.0652732569724,957.3037478048354Z" fill="#0c56ad" stroke="#0c56ad"></path><path d="M1089.719223221764,868.9296805579215L1231.0652732569724,957.3037478048354L1313.4569071233273,837.0028256624937Z" fill="#015aaf" stroke="#015aaf"></path><path d="M1313.4569071233273,837.0028256624937L1231.0652732569724,957.3037478048354L1449.5764019340277,998.1865852698684Z" fill="#004ba7" stroke="#004ba7"></path><path d="M1313.4569071233273,837.0028256624937L1449.5764019340277,998.1865852698684L1415.2951769158244,839.6483566146344Z" fill="#004da8" stroke="#004da8"></path><path d="M1415.2951769158244,839.6483566146344L1449.5764019340277,998.1865852698684L1534.695475101471,941.7185115348548Z" fill="#0042a2" stroke="#0042a2"></path><path d="M1415.2951769158244,839.6483566146344L1534.695475101471,941.7185115348548L1626.4625545218587,767.1368695423007Z" fill="#0049a6" stroke="#0049a6"></path><path d="M1626.4625545218587,767.1368695423007L1534.695475101471,941.7185115348548L1708.7522982247174,948.5058380663395Z" fill="#003d9f" stroke="#003d9f"></path><path d="M1626.4625545218587,767.1368695423007L1708.7522982247174,948.5058380663395L1742.5710424035788,776.8384358659387Z" fill="#0040a1" stroke="#0040a1"></path><path d="M-41.82661609724164,1032.508588442579L1080.6420762185007,1014.3604153767228L784.0895965788513,1004.9584254808724Z" fill="#4c6bb9" stroke="#4c6bb9"></path><path d="M-41.82661609724164,1032.508588442579L784.0895965788513,1004.9584254808724L542.2863171715289,1004.7568976785988Z" fill="#5c73bd" stroke="#5c73bd"></path><path d="M-41.82661609724164,1032.508588442579L542.2863171715289,1004.7568976785988L390.2962250635028,979.9061236996204Z" fill="#657ac1" stroke="#657ac1"></path><path d="M-41.82661609724164,1032.508588442579L390.2962250635028,979.9061236996204L103.4669207688421,959.2375827021897Z" fill="#6f83c6" stroke="#6f83c6"></path><path d="M103.4669207688421,959.2375827021897L390.2962250635028,979.9061236996204L202.32189643196762,925.866834204644Z" fill="#6a85c7" stroke="#6a85c7"></path><path d="M542.2863171715289,1004.7568976785988L784.0895965788513,1004.9584254808724L716.5204662457108,919.7286954894662Z" fill="#456fba" stroke="#456fba"></path><path d="M784.0895965788513,1004.9584254808724L1080.6420762185007,1014.3604153767228L960.768288737163,964.3455104716122Z" fill="#275db1" stroke="#275db1"></path><path d="M1080.6420762185007,1014.3604153767228L1449.5764019340277,998.1865852698684L1231.0652732569724,957.3037478048354Z" fill="#0047a5" stroke="#0047a5"></path><path d="M1449.5764019340277,998.1865852698684L1708.7522982247174,948.5058380663395L1534.695475101471,941.7185115348548Z" fill="#00359c" stroke="#00359c"></path></g></svg>